<?xml version="1.0" standalone="no"?>
<!DOCTYPE svg PUBLIC "-//W3C//DTD SVG 20010904//EN"
 "http://www.w3.org/TR/2001/REC-SVG-20010904/DTD/svg10.dtd">
<svg version="1.0" xmlns="http://www.w3.org/2000/svg"
 width="590.000000pt" height="590.000000pt" viewBox="0 0 590.000000 590.000000"
 preserveAspectRatio="xMidYMid meet">

<g transform="translate(0.000000,590.000000) scale(0.100000,-0.100000)"
fill="#000000" stroke="none">
<path d="M2725 4586 c-101 -23 -196 -68 -250 -117 -19 -17 -24 -17 -73 -3 -60
18 -132 8 -187 -26 -96 -59 -188 -196 -214 -318 -24 -112 -14 -183 51 -354
l41 -109 -21 -22 c-45 -48 -53 -108 -22 -172 23 -47 80 -85 128 -85 27 0 33
-6 65 -72 41 -87 97 -153 173 -203 49 -33 55 -40 52 -68 l-3 -31 -235 -73
c-129 -41 -255 -84 -280 -96 -54 -27 -114 -103 -129 -161 -5 -23 -22 -131 -36
-241 -14 -110 -28 -214 -31 -231 -4 -21 0 -36 11 -47 15 -15 70 -17 600 -17
517 0 585 2 599 16 9 8 16 19 16 24 0 5 -7 16 -16 24 -12 13 -38 16 -120 16
l-104 0 0 240 c0 132 3 240 6 240 3 0 36 -18 74 -40 38 -22 76 -40 84 -40 16
0 28 17 112 163 25 43 47 77 49 75 1 -1 8 -91 14 -198 6 -107 14 -214 17 -237
5 -41 4 -43 -20 -43 -58 0 -74 -71 -33 -150 16 -33 34 -51 67 -67 43 -22 52
-23 373 -23 207 0 335 4 348 10 21 12 25 40 7 58 -9 9 -101 12 -350 12 l-339
0 -24 25 c-14 13 -25 31 -25 40 0 13 57 15 515 15 458 0 515 -2 515 -15 0 -9
-11 -27 -25 -40 -20 -21 -34 -25 -79 -25 -72 0 -86 -6 -86 -40 0 -33 14 -40
84 -40 75 0 135 33 164 90 38 77 29 136 -24 146 l-34 6 5 62 c21 240 34 540
24 552 -9 12 -105 14 -545 14 -515 0 -533 -1 -546 -19 -13 -19 -16 -19 -71 -3
-55 17 -57 18 -57 52 0 30 5 38 36 55 59 32 156 143 189 217 27 61 33 67 60
68 124 1 192 154 113 255 l-21 27 31 61 c78 159 87 360 21 515 -19 45 -46 55
-69 27 -10 -12 -8 -29 11 -88 33 -98 33 -262 0 -352 -24 -65 -65 -135 -81
-135 -6 0 -10 20 -10 44 0 27 -6 48 -15 56 -9 7 -105 26 -213 42 -156 23 -210
35 -259 58 -67 31 -150 102 -184 156 -14 23 -28 34 -45 34 -19 0 -30 -13 -59
-71 -56 -111 -108 -159 -217 -203 -37 -15 -38 -16 -38 -65 0 -83 -23 -65 -72
57 -41 104 -42 110 -43 222 0 111 1 118 33 183 18 37 55 90 82 117 78 80 144
98 226 61 l42 -19 73 53 c99 71 164 96 269 102 154 10 272 -33 386 -139 68
-64 97 -72 102 -27 6 54 -138 170 -267 215 -90 31 -212 39 -296 20z m-158
-676 c103 -95 186 -123 478 -163 90 -12 90 -12 93 -42 3 -27 -2 -33 -44 -53
-44 -22 -47 -22 -60 -5 -7 10 -14 21 -14 24 0 12 -53 42 -87 50 -65 14 -151
-29 -174 -88 -7 -20 -16 -23 -57 -23 -45 0 -49 2 -65 35 -19 39 -52 64 -102
75 -53 12 -104 -6 -148 -52 l-38 -40 -44 27 c-36 20 -45 31 -45 53 0 23 8 31
50 51 67 32 128 87 165 150 17 28 32 51 34 51 2 0 28 -23 58 -50z m-13 -281
c52 -41 21 -139 -45 -139 -41 0 -58 9 -74 41 -21 40 -19 57 14 90 35 34 68 37
105 8z m401 -4 c16 -15 25 -36 25 -55 0 -19 -9 -40 -25 -55 -15 -16 -36 -25
-55 -25 -19 0 -40 9 -55 25 -16 15 -25 36 -25 55 0 19 9 40 25 55 15 16 36 25
55 25 19 0 40 -9 55 -25z m-769 -172 c-8 -8 -63 26 -70 42 -18 48 -3 93 38
110 l31 13 3 -80 c2 -44 1 -83 -2 -85z m1094 129 c11 -13 20 -35 20 -48 0 -28
-36 -70 -69 -79 -23 -7 -24 -5 -17 25 3 18 6 56 6 85 0 48 2 53 20 48 11 -3
29 -17 40 -31z m-921 -68 c15 -42 71 -91 114 -99 52 -10 111 10 146 50 17 20
31 42 31 50 0 11 13 15 49 15 47 0 50 -2 68 -37 21 -41 88 -83 133 -83 50 0
113 42 138 90 14 29 37 53 62 69 l40 23 0 -58 c-1 -220 -153 -399 -370 -436
-186 -32 -382 72 -464 246 -24 50 -45 153 -46 218 l0 28 43 -21 c32 -15 47
-31 56 -55z m277 -493 c60 -9 166 -1 208 15 12 5 16 0 16 -18 0 -15 -26 -52
-77 -106 l-76 -84 -84 84 c-57 57 -83 90 -83 106 0 18 4 23 16 18 10 -4 46
-11 80 -15z m-67 -165 l73 -73 -62 -38 c-33 -20 -63 -36 -64 -34 -2 2 -9 14
-15 27 -16 31 -65 27 -69 -5 -5 -31 45 -113 69 -113 10 0 48 18 84 40 36 22
68 40 70 40 3 0 5 -108 5 -240 l0 -240 -220 0 -219 0 -3 133 -3 132 -30 0 -30
0 -3 -132 -3 -133 -159 0 -160 0 5 23 c2 12 16 110 30 217 14 107 33 209 42
227 29 62 72 88 225 136 206 65 192 64 217 28 24 -34 51 -40 71 -16 10 12 10
21 1 42 -13 28 -7 38 24 46 43 10 53 5 124 -67z m403 61 l27 -12 -56 -98 -55
-97 -47 26 c-84 48 -84 46 -6 124 72 72 88 79 137 57z m1115 -49 c-3 -35 -12
-159 -18 -275 l-12 -213 -442 0 -442 0 -12 213 c-6 116 -15 240 -18 275 l-6
62 478 0 478 0 -6 -62z"/>
<path d="M2562 3318 c-36 -36 22 -117 96 -137 72 -20 154 15 187 79 20 38 19
47 -4 60 -25 13 -45 5 -61 -24 -7 -13 -23 -29 -37 -35 -45 -21 -74 -13 -113
29 -40 43 -49 47 -68 28z"/>
<path d="M3581 2788 c-14 -40 -45 -254 -38 -272 10 -25 56 -21 66 7 14 39 45
253 38 271 -10 25 -56 21 -66 -6z"/>
<path d="M3387 2721 c-26 -28 -47 -58 -47 -67 0 -9 22 -39 49 -66 36 -36 56
-49 73 -46 36 5 36 47 -2 83 l-30 29 31 32 c38 39 37 77 -2 82 -20 2 -36 -8
-72 -47z"/>
<path d="M3707 2763 c-15 -15 -5 -49 23 -78 l30 -31 -30 -29 c-16 -16 -30 -39
-30 -51 0 -27 31 -40 58 -25 30 16 92 89 92 109 0 24 -91 112 -116 112 -11 0
-24 -3 -27 -7z"/>
<path d="M1947 2064 c-4 -4 -7 -25 -7 -46 l0 -38 -110 0 -111 0 3 -57 3 -58
108 -3 c59 -1 107 -7 107 -12 0 -17 -44 -38 -140 -66 -52 -15 -99 -31 -104
-35 -5 -4 -1 -29 8 -55 9 -26 16 -49 16 -51 0 -2 -20 -3 -45 -3 l-45 0 0 -60
0 -60 163 -2 162 -3 3 -62 3 -63 64 0 64 0 3 63 3 62 153 3 152 3 0 59 0 60
-49 0 -50 0 19 54 18 55 -113 35 c-63 20 -122 44 -131 54 -17 16 -12 17 97 22
l114 5 3 58 3 57 -115 0 -115 0 -3 43 -3 42 -60 3 c-34 2 -64 0 -68 -4z m204
-379 l134 -44 -270 0 -270 -1 125 44 c69 24 130 44 136 45 6 0 71 -19 145 -44z"/>
<path d="M4070 1800 l0 -251 -22 7 c-38 12 -190 8 -233 -6 -87 -28 -145 -95
-145 -168 0 -124 96 -192 270 -192 170 0 270 69 270 185 0 52 -23 98 -64 131
l-36 29 47 5 48 5 0 250 0 250 -67 3 -68 3 0 -251z m-42 -370 c35 -16 42 -24
42 -48 0 -37 -23 -58 -82 -72 -37 -10 -59 -10 -95 0 -60 14 -83 35 -83 72 0
24 7 32 43 48 23 11 62 20 87 20 25 0 64 -9 88 -20z"/>
<path d="M3550 1800 l0 -200 153 1 c149 0 323 11 332 20 2 3 2 29 -2 57 l-6
52 -171 -2 -171 -3 -3 77 -3 77 143 3 143 3 3 58 3 57 -211 0 -210 0 0 -200z"/>
<path d="M2664 1976 c-3 -7 -4 -35 -2 -62 l3 -49 218 -3 217 -2 0 -40 0 -40
-207 0 c-115 0 -218 -3 -230 -6 -19 -5 -23 -13 -23 -43 0 -20 3 -46 6 -58 6
-22 6 -22 225 -16 l219 6 0 -34 c-1 -19 -5 -53 -9 -77 -5 -23 -5 -45 -1 -47 5
-3 35 -8 68 -11 l59 -7 7 33 c14 70 27 270 24 365 l-3 100 -283 3 c-234 2
-283 0 -288 -12z"/>
<path d="M2818 1523 l-3 -88 -128 -3 -128 -3 3 -57 3 -57 385 0 385 0 3 58 3
57 -190 0 -190 0 -3 88 -3 87 -67 3 -67 3 -3 -88z"/>
<path d="M1737 1474 c-4 -4 -7 -63 -7 -131 l0 -123 290 0 290 0 0 60 0 60
-220 0 -219 0 -3 68 -3 67 -60 3 c-34 2 -64 0 -68 -4z"/>
<path d="M1346 1055 c-3 -9 -18 -15 -36 -15 -16 0 -30 -4 -30 -10 0 -5 14 -10
31 -10 38 0 34 -20 -7 -33 -36 -12 -37 -13 -30 -26 4 -6 20 -5 46 4 34 12 46
12 80 0 26 -9 42 -10 46 -4 7 13 6 14 -30 26 -41 13 -45 33 -7 33 17 0 31 5
31 10 0 6 -14 10 -30 10 -18 0 -33 6 -36 15 -4 8 -10 15 -14 15 -4 0 -10 -7
-14 -15z"/>
<path d="M1610 1050 c0 -5 -11 -10 -25 -10 -16 0 -25 -6 -25 -15 0 -9 9 -15
25 -15 34 0 32 -23 -6 -54 -25 -21 -28 -27 -14 -32 9 -4 24 1 36 12 19 17 21
17 49 1 37 -22 49 -5 15 21 -30 24 -33 52 -5 52 11 0 20 7 20 15 0 8 -9 15
-20 15 -11 0 -20 5 -20 10 0 6 -7 10 -15 10 -8 0 -15 -4 -15 -10z"/>
<path d="M1720 1029 c0 -22 -5 -32 -20 -36 -11 -3 -20 -9 -20 -14 0 -5 9 -9
20 -9 17 0 20 -7 20 -41 0 -28 4 -39 13 -37 8 3 13 32 15 86 2 68 0 82 -13 82
-10 0 -15 -10 -15 -31z"/>
<path d="M2020 939 c0 -92 3 -120 13 -117 8 3 13 39 15 121 2 100 0 117 -13
117 -13 0 -15 -19 -15 -121z"/>
<path d="M2740 989 c0 -52 3 -70 13 -67 7 3 13 29 15 71 2 55 0 67 -13 67 -12
0 -15 -14 -15 -71z"/>
<path d="M3218 1049 c-21 -12 -24 -49 -6 -67 15 -15 92 -16 119 -2 11 6 19 21
19 35 0 14 -8 29 -19 35 -25 13 -91 13 -113 -1z m100 -24 c14 -14 -11 -35 -41
-35 -43 0 -67 23 -40 39 16 10 70 8 81 -4z"/>
<path d="M3630 940 c0 -100 3 -120 15 -120 13 0 15 20 15 120 0 100 -2 120
-15 120 -12 0 -15 -20 -15 -120z"/>
<path d="M4650 1030 c0 -25 -4 -30 -25 -30 -20 0 -25 5 -25 25 0 23 -3 25 -50
25 -38 0 -50 -4 -50 -15 0 -10 11 -15 35 -15 56 0 43 -31 -31 -76 -11 -7 -16
-15 -12 -19 10 -10 62 12 84 36 9 10 30 19 46 19 25 0 28 -3 28 -35 0 -24 5
-35 15 -35 12 0 15 15 15 75 0 60 -3 75 -15 75 -10 0 -15 -10 -15 -30z"/>
<path d="M1907 1005 c-3 -32 -13 -55 -31 -74 -14 -15 -26 -30 -26 -34 0 -14
24 -6 47 15 l23 21 24 -22 c35 -33 55 -16 22 18 -17 18 -26 40 -28 70 -4 60
-24 64 -31 6z"/>
<path d="M2580 995 l0 -56 68 3 c76 3 88 23 14 23 -44 0 -47 2 -50 27 -3 25 0
27 39 30 70 5 61 28 -10 28 l-61 0 0 -55z"/>
<path d="M3502 1034 c-42 -29 -18 -104 34 -104 34 0 64 29 64 60 0 30 -30 60
-60 60 -9 0 -26 -7 -38 -16z m63 -44 c0 -20 -6 -26 -26 -28 -28 -3 -43 16 -32
44 3 9 15 14 32 12 20 -2 26 -8 26 -28z"/>
<path d="M4210 1005 l0 -46 77 3 c50 2 78 7 81 16 3 9 -14 12 -62 12 -59 0
-66 2 -66 20 0 18 7 20 60 20 33 0 60 4 60 10 0 6 -32 10 -75 10 l-75 0 0 -45z"/>
<path d="M4800 975 c0 -86 14 -100 24 -22 9 80 8 97 -9 97 -12 0 -15 -15 -15
-75z"/>
<path d="M2300 1030 c0 -6 28 -10 65 -10 58 0 65 -2 65 -20 0 -18 -7 -20 -70
-20 -90 0 -92 -18 -2 -22 63 -3 67 -4 65 -25 -2 -14 3 -23 11 -23 15 0 26 42
26 96 l0 34 -80 0 c-47 0 -80 -4 -80 -10z"/>
<path d="M2890 1030 c0 -5 30 -10 68 -12 l67 -3 -2 -52 c-2 -41 1 -53 12 -53
12 0 15 15 15 65 l0 65 -80 0 c-44 0 -80 -4 -80 -10z"/>
<path d="M3920 985 c0 -54 0 -55 30 -55 25 0 30 -4 30 -25 0 -23 -3 -25 -50
-25 -38 0 -50 -4 -50 -15 0 -12 19 -15 110 -15 91 0 110 3 110 15 0 11 -12 15
-45 15 -41 0 -45 2 -45 25 0 21 5 25 30 25 30 0 30 1 30 55 l0 55 -75 0 -75 0
0 -55z m120 -1 l0 -35 -47 3 c-46 3 -48 4 -51 36 l-3 32 50 0 51 0 0 -36z"/>
<path d="M2910 920 c0 -33 -3 -40 -20 -40 -11 0 -20 -7 -20 -15 0 -12 18 -15
105 -15 87 0 105 3 105 15 0 11 -11 15 -40 15 l-40 0 0 40 c0 29 -4 40 -15 40
-11 0 -15 -11 -15 -40 0 -29 -4 -40 -15 -40 -11 0 -15 11 -15 40 0 29 -4 40
-15 40 -11 0 -15 -11 -15 -40z"/>
<path d="M3160 940 c0 -5 14 -10 30 -10 20 0 30 -5 30 -15 0 -8 -7 -15 -15
-15 -8 0 -15 -7 -15 -15 0 -12 14 -15 65 -15 63 0 65 -1 65 -25 0 -16 6 -25
15 -25 11 0 15 11 15 40 0 30 -4 40 -16 40 -26 0 -9 25 19 28 15 2 27 8 27 13
0 5 -49 9 -110 9 -67 0 -110 -4 -110 -10z m138 -27 c2 -8 -6 -13 -22 -13 -17
0 -26 5 -26 16 0 19 41 16 48 -3z"/>
<path d="M1250 930 c0 -5 21 -10 46 -10 37 0 47 -4 51 -20 3 -11 11 -20 18
-20 7 0 15 9 18 20 4 16 14 20 46 20 23 0 41 5 41 10 0 6 -43 10 -110 10 -67
0 -110 -4 -110 -10z"/>
<path d="M4180 925 c0 -12 19 -15 110 -15 91 0 110 3 110 15 0 12 -19 15 -110
15 -91 0 -110 -3 -110 -15z"/>
<path d="M2350 905 c0 -22 -4 -25 -40 -25 -29 0 -40 -4 -40 -15 0 -13 16 -15
107 -13 74 2 108 7 111 16 3 9 -13 12 -57 12 -58 0 -61 1 -61 25 0 14 -4 25
-10 25 -5 0 -10 -11 -10 -25z"/>
<path d="M2642 904 c-27 -19 -29 -60 -3 -74 52 -27 131 -2 131 43 0 22 -39 47
-75 47 -17 0 -41 -7 -53 -16z m93 -34 c0 -20 -30 -34 -58 -26 -33 8 -35 34 -4
45 26 10 62 -1 62 -19z"/>
<path d="M4587 900 c-3 -10 -21 -27 -40 -36 -21 -10 -33 -22 -30 -30 4 -11 13
-9 44 7 37 18 41 18 70 4 17 -9 38 -14 47 -10 13 5 9 11 -20 26 -20 10 -39 28
-43 39 -8 25 -21 26 -28 0z"/>
<path d="M1600 865 l0 -35 75 0 c91 0 101 18 13 22 -57 3 -63 5 -66 26 -5 35
-22 26 -22 -13z"/>
<path d="M3470 885 c0 -16 59 -21 119 -9 56 11 33 24 -44 24 -60 0 -75 -3 -75
-15z"/>
<path d="M4210 865 l0 -35 80 0 c47 0 80 4 80 10 0 6 -28 10 -65 10 -63 0 -65
1 -65 25 0 16 -6 25 -15 25 -10 0 -15 -11 -15 -35z"/>
<path d="M1280 860 l0 -30 80 0 c47 0 80 4 80 10 0 6 -28 10 -65 10 -58 0 -65
2 -65 20 0 11 -7 20 -15 20 -10 0 -15 -10 -15 -30z"/>
<path d="M4800 854 c0 -9 5 -14 12 -12 18 6 21 28 4 28 -9 0 -16 -7 -16 -16z"/>
</g>
</svg>
