<?xml version="1.0" encoding="UTF-8"?>
<svg xmlns="http://www.w3.org/2000/svg" xmlns:xlink="http://www.w3.org/1999/xlink" width="100px" height="100px" viewBox="0 0 100 99" version="1.1">
<g id="surface1">
<path style=" stroke:none;fill-rule:nonzero;fill:rgb(0%,0%,0%);fill-opacity:1;" d="M 46.15625 22.035156 C 44.445312 22.417969 42.835938 23.171875 41.921875 23.996094 C 41.597656 24.28125 41.515625 24.28125 40.683594 24.046875 C 39.667969 23.742188 38.449219 23.910156 37.515625 24.480469 C 35.890625 25.472656 34.332031 27.769531 33.890625 29.8125 C 33.484375 31.691406 33.65625 32.882812 34.757812 35.75 L 35.449219 37.578125 L 35.09375 37.945312 C 34.332031 38.75 34.195312 39.757812 34.722656 40.832031 C 35.113281 41.617188 36.078125 42.257812 36.890625 42.257812 C 37.347656 42.257812 37.449219 42.355469 37.992188 43.464844 C 38.6875 44.921875 39.632812 46.027344 40.921875 46.867188 C 41.75 47.421875 41.851562 47.539062 41.800781 48.007812 L 41.75 48.527344 L 37.769531 49.75 C 35.585938 50.4375 33.453125 51.160156 33.027344 51.359375 C 32.113281 51.8125 31.097656 53.089844 30.84375 54.0625 C 30.757812 54.445312 30.472656 56.257812 30.234375 58.101562 C 29.996094 59.945312 29.757812 61.691406 29.707031 61.976562 C 29.640625 62.328125 29.707031 62.578125 29.894531 62.765625 C 30.148438 63.015625 31.082031 63.046875 40.058594 63.046875 C 48.8125 63.046875 49.964844 63.015625 50.203125 62.78125 C 50.355469 62.644531 50.472656 62.460938 50.472656 62.378906 C 50.472656 62.292969 50.355469 62.109375 50.203125 61.976562 C 50 61.757812 49.558594 61.707031 48.171875 61.707031 L 46.410156 61.707031 L 46.410156 57.683594 C 46.410156 55.46875 46.460938 53.660156 46.511719 53.660156 C 46.5625 53.660156 47.121094 53.960938 47.765625 54.328125 C 48.40625 54.699219 49.050781 55 49.1875 55 C 49.457031 55 49.660156 54.714844 51.085938 52.265625 C 51.507812 51.546875 51.878906 50.976562 51.914062 51.007812 C 51.929688 51.027344 52.050781 52.535156 52.152344 54.328125 C 52.253906 56.125 52.386719 57.917969 52.4375 58.304688 C 52.523438 58.992188 52.507812 59.023438 52.101562 59.023438 C 51.117188 59.023438 50.847656 60.214844 51.542969 61.539062 C 51.8125 62.09375 52.117188 62.394531 52.675781 62.664062 C 53.40625 63.03125 53.558594 63.046875 58.992188 63.046875 C 62.5 63.046875 64.667969 62.980469 64.886719 62.882812 C 65.242188 62.679688 65.3125 62.210938 65.007812 61.910156 C 64.855469 61.757812 63.296875 61.707031 59.078125 61.707031 L 53.335938 61.707031 L 52.929688 61.289062 C 52.691406 61.070312 52.507812 60.769531 52.507812 60.617188 C 52.507812 60.398438 53.472656 60.367188 61.230469 60.367188 C 68.988281 60.367188 69.953125 60.398438 69.953125 60.617188 C 69.953125 60.769531 69.765625 61.070312 69.527344 61.289062 C 69.191406 61.640625 68.953125 61.707031 68.191406 61.707031 C 66.972656 61.707031 66.734375 61.808594 66.734375 62.378906 C 66.734375 62.929688 66.972656 63.046875 68.15625 63.046875 C 69.425781 63.046875 70.445312 62.496094 70.933594 61.539062 C 71.578125 60.25 71.425781 59.257812 70.527344 59.089844 L 69.953125 58.992188 L 70.039062 57.953125 C 70.394531 53.925781 70.613281 48.894531 70.445312 48.695312 C 70.292969 48.492188 68.664062 48.460938 61.210938 48.460938 C 52.488281 48.460938 52.183594 48.476562 51.964844 48.777344 C 51.746094 49.097656 51.695312 49.097656 50.761719 48.828125 C 49.832031 48.542969 49.796875 48.527344 49.796875 47.957031 C 49.796875 47.453125 49.882812 47.320312 50.40625 47.035156 C 51.40625 46.5 53.046875 44.636719 53.609375 43.394531 C 54.066406 42.375 54.167969 42.273438 54.625 42.257812 C 56.722656 42.238281 57.875 39.671875 56.539062 37.980469 L 56.183594 37.527344 L 56.707031 36.503906 C 58.027344 33.839844 58.179688 30.46875 57.0625 27.867188 C 56.742188 27.113281 56.285156 26.945312 55.894531 27.417969 C 55.726562 27.617188 55.757812 27.902344 56.082031 28.890625 C 56.640625 30.535156 56.640625 33.285156 56.082031 34.792969 C 55.675781 35.882812 54.980469 37.058594 54.707031 37.058594 C 54.605469 37.058594 54.539062 36.722656 54.539062 36.320312 C 54.539062 35.867188 54.4375 35.515625 54.285156 35.382812 C 54.132812 35.265625 52.507812 34.945312 50.675781 34.675781 C 48.035156 34.292969 47.121094 34.089844 46.289062 33.703125 C 45.15625 33.183594 43.75 31.992188 43.175781 31.089844 C 42.9375 30.703125 42.699219 30.519531 42.410156 30.519531 C 42.089844 30.519531 41.902344 30.734375 41.414062 31.707031 C 40.464844 33.570312 39.582031 34.375 37.738281 35.113281 C 37.109375 35.363281 37.09375 35.382812 37.09375 36.203125 C 37.09375 37.59375 36.703125 37.292969 35.875 35.246094 C 35.179688 33.503906 35.164062 33.402344 35.144531 31.523438 C 35.144531 29.664062 35.164062 29.546875 35.703125 28.457031 C 36.007812 27.835938 36.636719 26.945312 37.09375 26.492188 C 38.414062 25.152344 39.53125 24.851562 40.921875 25.472656 L 41.632812 25.789062 L 42.871094 24.902344 C 44.546875 23.710938 45.648438 23.292969 47.425781 23.191406 C 50.035156 23.023438 52.03125 23.742188 53.964844 25.519531 C 55.113281 26.59375 55.605469 26.730469 55.691406 25.972656 C 55.792969 25.070312 53.355469 23.125 51.167969 22.367188 C 49.644531 21.847656 47.578125 21.714844 46.15625 22.035156 Z M 43.480469 33.367188 C 45.222656 34.960938 46.628906 35.429688 51.574219 36.101562 C 53.097656 36.304688 53.097656 36.304688 53.152344 36.804688 C 53.203125 37.257812 53.117188 37.359375 52.40625 37.695312 C 51.660156 38.0625 51.609375 38.0625 51.390625 37.777344 C 51.269531 37.609375 51.152344 37.425781 51.152344 37.375 C 51.152344 37.175781 50.253906 36.671875 49.679688 36.539062 C 48.578125 36.304688 47.121094 37.023438 46.730469 38.015625 C 46.613281 38.347656 46.460938 38.398438 45.765625 38.398438 C 45.003906 38.398438 44.9375 38.367188 44.664062 37.8125 C 44.34375 37.160156 43.785156 36.738281 42.9375 36.554688 C 42.039062 36.355469 41.175781 36.65625 40.429688 37.425781 L 39.785156 38.097656 L 39.042969 37.644531 C 38.429688 37.308594 38.277344 37.125 38.277344 36.757812 C 38.277344 36.371094 38.414062 36.234375 39.125 35.902344 C 40.261719 35.363281 41.292969 34.441406 41.921875 33.386719 C 42.207031 32.917969 42.460938 32.53125 42.496094 32.53125 C 42.53125 32.53125 42.972656 32.917969 43.480469 33.367188 Z M 43.257812 38.082031 C 44.140625 38.769531 43.613281 40.410156 42.496094 40.410156 C 41.800781 40.410156 41.515625 40.261719 41.242188 39.722656 C 40.886719 39.054688 40.921875 38.769531 41.480469 38.214844 C 42.074219 37.644531 42.632812 37.59375 43.257812 38.082031 Z M 50.050781 38.148438 C 50.320312 38.398438 50.472656 38.75 50.472656 39.070312 C 50.472656 39.390625 50.320312 39.742188 50.050781 39.992188 C 49.796875 40.261719 49.441406 40.410156 49.121094 40.410156 C 48.796875 40.410156 48.441406 40.261719 48.1875 39.992188 C 47.917969 39.742188 47.765625 39.390625 47.765625 39.070312 C 47.765625 38.75 47.917969 38.398438 48.1875 38.148438 C 48.441406 37.878906 48.796875 37.730469 49.121094 37.730469 C 49.441406 37.730469 49.796875 37.878906 50.050781 38.148438 Z M 37.027344 41.03125 C 36.890625 41.167969 35.957031 40.597656 35.839844 40.328125 C 35.535156 39.523438 35.789062 38.769531 36.484375 38.484375 L 37.007812 38.265625 L 37.058594 39.605469 C 37.09375 40.34375 37.078125 41 37.027344 41.03125 Z M 55.554688 38.867188 C 55.742188 39.085938 55.894531 39.457031 55.894531 39.671875 C 55.894531 40.144531 55.285156 40.847656 54.726562 41 C 54.335938 41.117188 54.320312 41.082031 54.4375 40.578125 C 54.488281 40.277344 54.539062 39.640625 54.539062 39.152344 C 54.539062 38.347656 54.574219 38.265625 54.878906 38.347656 C 55.0625 38.398438 55.371094 38.632812 55.554688 38.867188 Z M 39.957031 40.007812 C 40.210938 40.714844 41.160156 41.535156 41.886719 41.667969 C 42.769531 41.835938 43.765625 41.5 44.359375 40.832031 C 44.648438 40.496094 44.886719 40.125 44.886719 39.992188 C 44.886719 39.808594 45.105469 39.742188 45.714844 39.742188 C 46.511719 39.742188 46.5625 39.773438 46.867188 40.359375 C 47.222656 41.046875 48.355469 41.753906 49.121094 41.753906 C 49.964844 41.753906 51.03125 41.046875 51.457031 40.242188 C 51.695312 39.757812 52.082031 39.355469 52.507812 39.085938 L 53.183594 38.703125 L 53.183594 39.671875 C 53.167969 43.363281 50.59375 46.363281 46.917969 46.984375 C 43.765625 47.519531 40.445312 45.777344 39.058594 42.859375 C 38.652344 42.019531 38.296875 40.292969 38.277344 39.203125 L 38.277344 38.734375 L 39.007812 39.085938 C 39.550781 39.339844 39.804688 39.605469 39.957031 40.007812 Z M 44.648438 48.277344 C 45.664062 48.425781 47.460938 48.292969 48.171875 48.023438 C 48.375 47.941406 48.441406 48.023438 48.441406 48.328125 C 48.441406 48.578125 48 49.199219 47.136719 50.105469 L 45.851562 51.511719 L 44.425781 50.105469 C 43.460938 49.148438 43.023438 48.59375 43.023438 48.328125 C 43.023438 48.023438 43.089844 47.941406 43.292969 48.023438 C 43.460938 48.089844 44.070312 48.207031 44.648438 48.277344 Z M 43.511719 51.042969 L 44.75 52.265625 L 43.699219 52.902344 C 43.140625 53.238281 42.632812 53.507812 42.613281 53.472656 C 42.582031 53.441406 42.460938 53.238281 42.359375 53.019531 C 42.089844 52.5 41.261719 52.570312 41.191406 53.105469 C 41.109375 53.625 41.953125 55 42.359375 55 C 42.53125 55 43.175781 54.699219 43.785156 54.328125 C 44.394531 53.960938 44.9375 53.660156 44.96875 53.660156 C 45.019531 53.660156 45.054688 55.46875 45.054688 57.683594 L 45.054688 61.707031 L 37.617188 61.707031 L 37.566406 59.476562 L 37.515625 57.265625 L 36.5 57.265625 L 36.449219 59.476562 L 36.398438 61.707031 L 30.996094 61.707031 L 31.082031 61.320312 C 31.113281 61.121094 31.351562 59.476562 31.589844 57.683594 C 31.824219 55.890625 32.148438 54.179688 32.300781 53.875 C 32.792969 52.835938 33.519531 52.402344 36.109375 51.597656 C 39.601562 50.507812 39.363281 50.523438 39.785156 51.125 C 40.191406 51.695312 40.652344 51.796875 40.988281 51.394531 C 41.160156 51.195312 41.160156 51.042969 41.007812 50.691406 C 40.785156 50.222656 40.886719 50.054688 41.414062 49.917969 C 42.140625 49.75 42.308594 49.835938 43.511719 51.042969 Z M 50.339844 50.019531 L 50.796875 50.222656 L 49.847656 51.863281 L 48.914062 53.492188 L 48.121094 53.054688 C 46.695312 52.25 46.695312 52.285156 48.019531 50.976562 C 49.238281 49.769531 49.507812 49.652344 50.339844 50.019531 Z M 69.222656 50.839844 C 69.171875 51.429688 69.019531 53.507812 68.917969 55.453125 L 68.714844 59.023438 L 53.742188 59.023438 L 53.539062 55.453125 C 53.4375 53.507812 53.285156 51.429688 53.234375 50.839844 L 53.132812 49.800781 L 69.324219 49.800781 Z M 69.222656 50.839844 "/>
<path style=" stroke:none;fill-rule:nonzero;fill:rgb(0%,0%,0%);fill-opacity:1;" d="M 43.394531 43.296875 C 42.785156 43.898438 43.765625 45.257812 45.019531 45.59375 C 46.238281 45.929688 47.628906 45.339844 48.1875 44.269531 C 48.527344 43.632812 48.507812 43.480469 48.121094 43.261719 C 47.695312 43.042969 47.359375 43.179688 47.085938 43.664062 C 46.96875 43.882812 46.695312 44.152344 46.460938 44.25 C 45.699219 44.605469 45.207031 44.46875 44.546875 43.765625 C 43.867188 43.042969 43.714844 42.976562 43.394531 43.296875 Z M 43.394531 43.296875 "/>
<path style=" stroke:none;fill-rule:nonzero;fill:rgb(0%,0%,0%);fill-opacity:1;" d="M 60.652344 52.183594 C 60.417969 52.855469 59.890625 56.441406 60.011719 56.742188 C 60.179688 57.164062 60.957031 57.097656 61.128906 56.625 C 61.363281 55.972656 61.890625 52.382812 61.773438 52.082031 C 61.601562 51.664062 60.824219 51.730469 60.652344 52.183594 Z M 60.652344 52.183594 "/>
<path style=" stroke:none;fill-rule:nonzero;fill:rgb(0%,0%,0%);fill-opacity:1;" d="M 57.367188 53.304688 C 56.925781 53.777344 56.570312 54.277344 56.570312 54.429688 C 56.570312 54.582031 56.945312 55.082031 57.402344 55.535156 C 58.011719 56.140625 58.351562 56.359375 58.636719 56.308594 C 59.246094 56.222656 59.246094 55.519531 58.605469 54.917969 L 58.097656 54.429688 L 58.621094 53.894531 C 59.265625 53.238281 59.246094 52.601562 58.585938 52.519531 C 58.25 52.484375 57.976562 52.652344 57.367188 53.304688 Z M 57.367188 53.304688 "/>
<path style=" stroke:none;fill-rule:nonzero;fill:rgb(0%,0%,0%);fill-opacity:1;" d="M 62.789062 52.601562 C 62.535156 52.855469 62.703125 53.421875 63.175781 53.910156 L 63.6875 54.429688 L 63.175781 54.917969 C 62.90625 55.183594 62.667969 55.570312 62.667969 55.769531 C 62.667969 56.222656 63.195312 56.441406 63.652344 56.191406 C 64.160156 55.921875 65.210938 54.699219 65.210938 54.363281 C 65.210938 53.960938 63.667969 52.484375 63.246094 52.484375 C 63.058594 52.484375 62.839844 52.535156 62.789062 52.601562 Z M 62.789062 52.601562 "/>
<path style=" stroke:none;fill-rule:nonzero;fill:rgb(0%,0%,0%);fill-opacity:1;" d="M 32.976562 64.324219 C 32.910156 64.390625 32.859375 64.742188 32.859375 65.09375 L 32.859375 65.730469 L 29.117188 65.730469 L 29.167969 66.6875 L 29.21875 67.660156 L 31.046875 67.710938 C 32.046875 67.726562 32.859375 67.828125 32.859375 67.910156 C 32.859375 68.195312 32.113281 68.546875 30.488281 69.019531 C 29.605469 69.269531 28.8125 69.539062 28.726562 69.605469 C 28.640625 69.671875 28.710938 70.089844 28.863281 70.527344 C 29.015625 70.964844 29.132812 71.347656 29.132812 71.382812 C 29.132812 71.417969 28.792969 71.433594 28.371094 71.433594 L 27.609375 71.433594 L 27.609375 73.445312 L 30.371094 73.480469 L 33.113281 73.527344 L 33.164062 74.570312 L 33.214844 75.625 L 35.382812 75.625 L 35.433594 74.570312 L 35.484375 73.527344 L 38.074219 73.480469 L 40.652344 73.429688 L 40.652344 71.433594 L 38.972656 71.433594 L 39.296875 70.527344 L 39.601562 69.605469 L 37.6875 69.019531 C 36.621094 68.683594 35.621094 68.28125 35.46875 68.113281 C 35.179688 67.84375 35.265625 67.828125 37.109375 67.742188 L 39.042969 67.660156 L 39.09375 66.6875 L 39.144531 65.730469 L 35.246094 65.730469 L 35.195312 65.011719 L 35.144531 64.304688 L 34.128906 64.257812 C 33.554688 64.222656 33.046875 64.257812 32.976562 64.324219 Z M 36.433594 70.679688 L 38.703125 71.417969 L 34.128906 71.417969 L 29.554688 71.433594 L 31.671875 70.695312 C 32.84375 70.292969 33.875 69.957031 33.976562 69.941406 C 34.078125 69.941406 35.179688 70.257812 36.433594 70.679688 Z M 36.433594 70.679688 "/>
<path style=" stroke:none;fill-rule:nonzero;fill:rgb(0%,0%,0%);fill-opacity:1;" d="M 68.9375 68.75 L 68.9375 72.957031 L 68.5625 72.839844 C 67.921875 72.640625 65.34375 72.707031 64.617188 72.941406 C 63.144531 73.410156 62.160156 74.535156 62.160156 75.757812 C 62.160156 77.839844 63.789062 78.980469 66.734375 78.980469 C 69.613281 78.980469 71.308594 77.820312 71.308594 75.875 C 71.308594 75.003906 70.917969 74.234375 70.222656 73.679688 L 69.613281 73.195312 L 70.410156 73.109375 L 71.222656 73.027344 L 71.222656 64.640625 L 70.089844 64.589844 L 68.9375 64.542969 Z M 68.226562 74.953125 C 68.816406 75.222656 68.9375 75.355469 68.9375 75.757812 C 68.9375 76.378906 68.546875 76.730469 67.546875 76.964844 C 66.921875 77.132812 66.546875 77.132812 65.9375 76.964844 C 64.921875 76.730469 64.53125 76.378906 64.53125 75.757812 C 64.53125 75.355469 64.652344 75.222656 65.261719 74.953125 C 65.652344 74.769531 66.3125 74.617188 66.734375 74.617188 C 67.15625 74.617188 67.820312 74.769531 68.226562 74.953125 Z M 68.226562 74.953125 "/>
<path style=" stroke:none;fill-rule:nonzero;fill:rgb(0%,0%,0%);fill-opacity:1;" d="M 60.128906 68.75 L 60.128906 72.105469 L 62.71875 72.085938 C 65.242188 72.085938 68.191406 71.902344 68.34375 71.75 C 68.378906 71.703125 68.378906 71.265625 68.308594 70.796875 L 68.207031 69.921875 L 65.3125 69.957031 L 62.414062 70.007812 L 62.363281 68.714844 L 62.3125 67.425781 L 67.15625 67.324219 L 67.207031 66.351562 L 67.257812 65.394531 L 60.128906 65.394531 Z M 60.128906 68.75 "/>
<path style=" stroke:none;fill-rule:nonzero;fill:rgb(0%,0%,0%);fill-opacity:1;" d="M 45.121094 65.796875 C 45.070312 65.917969 45.054688 66.386719 45.089844 66.839844 L 45.140625 67.660156 L 48.832031 67.710938 L 52.507812 67.742188 L 52.507812 69.085938 L 49 69.085938 C 47.054688 69.085938 45.308594 69.136719 45.105469 69.1875 C 44.78125 69.269531 44.714844 69.402344 44.714844 69.90625 C 44.714844 70.242188 44.765625 70.679688 44.816406 70.878906 C 44.917969 71.25 44.917969 71.25 48.628906 71.148438 L 52.335938 71.046875 L 52.335938 71.617188 C 52.320312 71.9375 52.253906 72.507812 52.183594 72.910156 C 52.101562 73.292969 52.101562 73.664062 52.167969 73.695312 C 52.253906 73.746094 52.761719 73.832031 53.320312 73.882812 L 54.320312 74 L 54.4375 73.445312 C 54.675781 72.269531 54.894531 68.917969 54.84375 67.324219 L 54.792969 65.648438 L 50 65.597656 C 46.035156 65.5625 45.207031 65.597656 45.121094 65.796875 Z M 45.121094 65.796875 "/>
<path style=" stroke:none;fill-rule:nonzero;fill:rgb(0%,0%,0%);fill-opacity:1;" d="M 47.730469 73.394531 L 47.679688 74.871094 L 43.34375 74.972656 L 43.394531 75.925781 L 43.445312 76.882812 L 56.488281 76.882812 L 56.539062 75.910156 L 56.589844 74.953125 L 50.152344 74.953125 L 50.101562 73.480469 L 50.050781 72.019531 L 48.914062 71.96875 L 47.78125 71.917969 Z M 47.730469 73.394531 "/>
<path style=" stroke:none;fill-rule:nonzero;fill:rgb(0%,0%,0%);fill-opacity:1;" d="M 29.421875 74.214844 C 29.351562 74.285156 29.300781 75.273438 29.300781 76.414062 L 29.300781 78.476562 L 39.125 78.476562 L 39.125 76.464844 L 31.691406 76.464844 L 31.640625 75.324219 L 31.589844 74.199219 L 30.574219 74.148438 C 29.996094 74.117188 29.488281 74.148438 29.421875 74.214844 Z M 29.421875 74.214844 "/>
<path style=" stroke:none;fill-rule:nonzero;fill:rgb(0%,0%,0%);fill-opacity:1;" d="M 22.796875 81.242188 C 22.746094 81.394531 22.492188 81.492188 22.1875 81.492188 C 21.917969 81.492188 21.679688 81.5625 21.679688 81.660156 C 21.679688 81.746094 21.917969 81.828125 22.207031 81.828125 C 22.847656 81.828125 22.78125 82.164062 22.085938 82.382812 C 21.476562 82.582031 21.460938 82.601562 21.578125 82.820312 C 21.644531 82.917969 21.917969 82.902344 22.359375 82.75 C 22.933594 82.550781 23.136719 82.550781 23.710938 82.75 C 24.152344 82.902344 24.425781 82.917969 24.492188 82.820312 C 24.609375 82.601562 24.59375 82.582031 23.984375 82.382812 C 23.289062 82.164062 23.222656 81.828125 23.863281 81.828125 C 24.152344 81.828125 24.390625 81.746094 24.390625 81.660156 C 24.390625 81.5625 24.152344 81.492188 23.882812 81.492188 C 23.578125 81.492188 23.324219 81.394531 23.273438 81.242188 C 23.203125 81.109375 23.101562 80.992188 23.035156 80.992188 C 22.96875 80.992188 22.867188 81.109375 22.796875 81.242188 Z M 22.796875 81.242188 "/>
<path style=" stroke:none;fill-rule:nonzero;fill:rgb(0%,0%,0%);fill-opacity:1;" d="M 27.269531 81.328125 C 27.269531 81.410156 27.082031 81.492188 26.847656 81.492188 C 26.574219 81.492188 26.421875 81.59375 26.421875 81.746094 C 26.421875 81.894531 26.574219 81.996094 26.847656 81.996094 C 27.421875 81.996094 27.386719 82.382812 26.746094 82.902344 C 26.320312 83.253906 26.269531 83.355469 26.507812 83.4375 C 26.660156 83.507812 26.914062 83.421875 27.117188 83.238281 C 27.4375 82.953125 27.472656 82.953125 27.945312 83.222656 C 28.574219 83.589844 28.777344 83.304688 28.203125 82.867188 C 27.691406 82.464844 27.640625 81.996094 28.117188 81.996094 C 28.304688 81.996094 28.457031 81.878906 28.457031 81.746094 C 28.457031 81.609375 28.304688 81.492188 28.117188 81.492188 C 27.929688 81.492188 27.777344 81.410156 27.777344 81.328125 C 27.777344 81.226562 27.660156 81.160156 27.523438 81.160156 C 27.386719 81.160156 27.269531 81.226562 27.269531 81.328125 Z M 27.269531 81.328125 "/>
<path style=" stroke:none;fill-rule:nonzero;fill:rgb(0%,0%,0%);fill-opacity:1;" d="M 29.132812 81.679688 C 29.132812 82.046875 29.046875 82.214844 28.792969 82.28125 C 28.609375 82.332031 28.457031 82.433594 28.457031 82.515625 C 28.457031 82.601562 28.609375 82.667969 28.792969 82.667969 C 29.082031 82.667969 29.132812 82.785156 29.132812 83.355469 C 29.132812 83.824219 29.199219 84.007812 29.351562 83.976562 C 29.488281 83.925781 29.574219 83.4375 29.605469 82.535156 C 29.640625 81.394531 29.605469 81.160156 29.386719 81.160156 C 29.21875 81.160156 29.132812 81.328125 29.132812 81.679688 Z M 29.132812 81.679688 "/>
<path style=" stroke:none;fill-rule:nonzero;fill:rgb(0%,0%,0%);fill-opacity:1;" d="M 34.214844 83.1875 C 34.214844 84.730469 34.265625 85.199219 34.433594 85.148438 C 34.570312 85.097656 34.65625 84.496094 34.6875 83.121094 C 34.722656 81.445312 34.6875 81.160156 34.46875 81.160156 C 34.246094 81.160156 34.214844 81.476562 34.214844 83.1875 Z M 34.214844 83.1875 "/>
<path style=" stroke:none;fill-rule:nonzero;fill:rgb(0%,0%,0%);fill-opacity:1;" d="M 46.410156 82.347656 C 46.410156 83.222656 46.460938 83.523438 46.628906 83.472656 C 46.746094 83.421875 46.847656 82.984375 46.882812 82.28125 C 46.917969 81.359375 46.882812 81.160156 46.664062 81.160156 C 46.460938 81.160156 46.410156 81.394531 46.410156 82.347656 Z M 46.410156 82.347656 "/>
<path style=" stroke:none;fill-rule:nonzero;fill:rgb(0%,0%,0%);fill-opacity:1;" d="M 54.503906 81.34375 C 54.148438 81.542969 54.097656 82.164062 54.402344 82.464844 C 54.65625 82.71875 55.960938 82.734375 56.417969 82.5 C 56.605469 82.398438 56.742188 82.148438 56.742188 81.914062 C 56.742188 81.679688 56.605469 81.425781 56.417969 81.328125 C 55.996094 81.109375 54.878906 81.109375 54.503906 81.34375 Z M 56.199219 81.746094 C 56.4375 81.980469 56.011719 82.332031 55.503906 82.332031 C 54.777344 82.332031 54.371094 81.945312 54.828125 81.679688 C 55.097656 81.511719 56.011719 81.542969 56.199219 81.746094 Z M 56.199219 81.746094 "/>
<path style=" stroke:none;fill-rule:nonzero;fill:rgb(0%,0%,0%);fill-opacity:1;" d="M 61.484375 83.171875 C 61.484375 84.847656 61.535156 85.183594 61.738281 85.183594 C 61.957031 85.183594 61.992188 84.847656 61.992188 83.171875 C 61.992188 81.492188 61.957031 81.160156 61.738281 81.160156 C 61.535156 81.160156 61.484375 81.492188 61.484375 83.171875 Z M 61.484375 83.171875 "/>
<path style=" stroke:none;fill-rule:nonzero;fill:rgb(0%,0%,0%);fill-opacity:1;" d="M 78.761719 81.660156 C 78.761719 82.082031 78.691406 82.164062 78.335938 82.164062 C 77.996094 82.164062 77.914062 82.082031 77.914062 81.746094 C 77.914062 81.359375 77.863281 81.328125 77.066406 81.328125 C 76.421875 81.328125 76.21875 81.394531 76.21875 81.578125 C 76.21875 81.746094 76.40625 81.828125 76.8125 81.828125 C 77.761719 81.828125 77.539062 82.347656 76.289062 83.105469 C 76.101562 83.222656 76.015625 83.355469 76.085938 83.421875 C 76.253906 83.589844 77.132812 83.222656 77.507812 82.820312 C 77.660156 82.652344 78.015625 82.5 78.285156 82.5 C 78.710938 82.5 78.761719 82.550781 78.761719 83.085938 C 78.761719 83.488281 78.84375 83.671875 79.015625 83.671875 C 79.21875 83.671875 79.269531 83.421875 79.269531 82.417969 C 79.269531 81.410156 79.21875 81.160156 79.015625 81.160156 C 78.84375 81.160156 78.761719 81.328125 78.761719 81.660156 Z M 78.761719 81.660156 "/>
<path style=" stroke:none;fill-rule:nonzero;fill:rgb(0%,0%,0%);fill-opacity:1;" d="M 32.300781 82.082031 C 32.25 82.617188 32.078125 83.003906 31.773438 83.320312 C 31.539062 83.574219 31.335938 83.824219 31.335938 83.890625 C 31.335938 84.125 31.742188 83.992188 32.128906 83.640625 L 32.519531 83.289062 L 32.925781 83.65625 C 33.519531 84.210938 33.859375 83.925781 33.300781 83.355469 C 33.011719 83.054688 32.859375 82.683594 32.824219 82.179688 C 32.757812 81.175781 32.417969 81.109375 32.300781 82.082031 Z M 32.300781 82.082031 "/>
<path style=" stroke:none;fill-rule:nonzero;fill:rgb(0%,0%,0%);fill-opacity:1;" d="M 43.699219 82.25 L 43.699219 83.1875 L 44.851562 83.136719 C 46.136719 83.085938 46.339844 82.75 45.089844 82.75 C 44.34375 82.75 44.292969 82.71875 44.242188 82.296875 C 44.191406 81.878906 44.242188 81.847656 44.902344 81.796875 C 46.085938 81.710938 45.933594 81.328125 44.730469 81.328125 L 43.699219 81.328125 Z M 43.699219 82.25 "/>
<path style=" stroke:none;fill-rule:nonzero;fill:rgb(0%,0%,0%);fill-opacity:1;" d="M 59.316406 81.59375 C 58.605469 82.082031 59.011719 83.339844 59.890625 83.339844 C 60.46875 83.339844 60.976562 82.851562 60.976562 82.332031 C 60.976562 81.828125 60.46875 81.328125 59.960938 81.328125 C 59.808594 81.328125 59.519531 81.445312 59.316406 81.59375 Z M 60.382812 82.332031 C 60.382812 82.667969 60.28125 82.769531 59.941406 82.800781 C 59.46875 82.851562 59.214844 82.535156 59.402344 82.0625 C 59.453125 81.914062 59.65625 81.828125 59.941406 81.863281 C 60.28125 81.894531 60.382812 81.996094 60.382812 82.332031 Z M 60.382812 82.332031 "/>
<path style=" stroke:none;fill-rule:nonzero;fill:rgb(0%,0%,0%);fill-opacity:1;" d="M 71.308594 82.082031 L 71.308594 82.851562 L 72.613281 82.800781 C 73.457031 82.769531 73.933594 82.683594 73.984375 82.535156 C 74.035156 82.382812 73.746094 82.332031 72.933594 82.332031 C 71.933594 82.332031 71.816406 82.296875 71.816406 81.996094 C 71.816406 81.695312 71.933594 81.660156 72.832031 81.660156 C 73.390625 81.660156 73.847656 81.59375 73.847656 81.492188 C 73.847656 81.394531 73.304688 81.328125 72.578125 81.328125 L 71.308594 81.328125 Z M 71.308594 82.082031 "/>
<path style=" stroke:none;fill-rule:nonzero;fill:rgb(0%,0%,0%);fill-opacity:1;" d="M 81.300781 82.582031 C 81.300781 84.027344 81.539062 84.261719 81.707031 82.953125 C 81.859375 81.609375 81.84375 81.328125 81.554688 81.328125 C 81.351562 81.328125 81.300781 81.578125 81.300781 82.582031 Z M 81.300781 82.582031 "/>
<path style=" stroke:none;fill-rule:nonzero;fill:rgb(0%,0%,0%);fill-opacity:1;" d="M 38.957031 81.660156 C 38.957031 81.761719 39.429688 81.828125 40.058594 81.828125 C 41.039062 81.828125 41.160156 81.863281 41.160156 82.164062 C 41.160156 82.464844 41.039062 82.5 39.972656 82.5 C 38.449219 82.5 38.414062 82.800781 39.9375 82.867188 C 41.007812 82.917969 41.074219 82.9375 41.039062 83.289062 C 41.007812 83.523438 41.089844 83.671875 41.226562 83.671875 C 41.480469 83.671875 41.667969 82.96875 41.667969 82.0625 L 41.667969 81.492188 L 40.3125 81.492188 C 39.515625 81.492188 38.957031 81.5625 38.957031 81.660156 Z M 38.957031 81.660156 "/>
<path style=" stroke:none;fill-rule:nonzero;fill:rgb(0%,0%,0%);fill-opacity:1;" d="M 48.949219 81.660156 C 48.949219 81.746094 49.457031 81.828125 50.101562 81.863281 L 51.238281 81.914062 L 51.203125 82.785156 C 51.167969 83.472656 51.21875 83.671875 51.40625 83.671875 C 51.609375 83.671875 51.660156 83.421875 51.660156 82.582031 L 51.660156 81.492188 L 50.304688 81.492188 C 49.558594 81.492188 48.949219 81.5625 48.949219 81.660156 Z M 48.949219 81.660156 "/>
<path style=" stroke:none;fill-rule:nonzero;fill:rgb(0%,0%,0%);fill-opacity:1;" d="M 66.394531 82.417969 C 66.394531 83.320312 66.394531 83.339844 66.902344 83.339844 C 67.328125 83.339844 67.410156 83.40625 67.410156 83.757812 C 67.410156 84.144531 67.359375 84.175781 66.566406 84.175781 C 65.921875 84.175781 65.71875 84.242188 65.71875 84.429688 C 65.71875 84.628906 66.039062 84.679688 67.582031 84.679688 C 69.121094 84.679688 69.445312 84.628906 69.445312 84.429688 C 69.445312 84.242188 69.242188 84.175781 68.683594 84.175781 C 67.988281 84.175781 67.921875 84.144531 67.921875 83.757812 C 67.921875 83.40625 68.003906 83.339844 68.429688 83.339844 C 68.9375 83.339844 68.9375 83.320312 68.9375 82.417969 L 68.9375 81.492188 L 66.394531 81.492188 Z M 68.429688 82.433594 L 68.429688 83.019531 L 67.632812 82.96875 C 66.851562 82.917969 66.820312 82.902344 66.769531 82.367188 L 66.71875 81.828125 L 68.429688 81.828125 Z M 68.429688 82.433594 "/>
<path style=" stroke:none;fill-rule:nonzero;fill:rgb(0%,0%,0%);fill-opacity:1;" d="M 49.289062 83.507812 C 49.289062 84.058594 49.238281 84.175781 48.949219 84.175781 C 48.761719 84.175781 48.609375 84.292969 48.609375 84.429688 C 48.609375 84.628906 48.914062 84.679688 50.390625 84.679688 C 51.863281 84.679688 52.167969 84.628906 52.167969 84.429688 C 52.167969 84.242188 51.980469 84.175781 51.492188 84.175781 L 50.8125 84.175781 L 50.8125 83.507812 C 50.8125 83.019531 50.746094 82.835938 50.558594 82.835938 C 50.371094 82.835938 50.304688 83.019531 50.304688 83.507812 C 50.304688 83.992188 50.238281 84.175781 50.050781 84.175781 C 49.863281 84.175781 49.796875 83.992188 49.796875 83.507812 C 49.796875 83.019531 49.730469 82.835938 49.542969 82.835938 C 49.355469 82.835938 49.289062 83.019531 49.289062 83.507812 Z M 49.289062 83.507812 "/>
<path style=" stroke:none;fill-rule:nonzero;fill:rgb(0%,0%,0%);fill-opacity:1;" d="M 53.523438 83.171875 C 53.523438 83.253906 53.761719 83.339844 54.03125 83.339844 C 54.371094 83.339844 54.539062 83.421875 54.539062 83.589844 C 54.539062 83.722656 54.421875 83.839844 54.285156 83.839844 C 54.148438 83.839844 54.03125 83.957031 54.03125 84.09375 C 54.03125 84.292969 54.269531 84.34375 55.132812 84.34375 C 56.199219 84.34375 56.234375 84.359375 56.234375 84.765625 C 56.234375 85.03125 56.335938 85.183594 56.488281 85.183594 C 56.671875 85.183594 56.742188 85 56.742188 84.511719 C 56.742188 84.007812 56.671875 83.839844 56.46875 83.839844 C 56.03125 83.839844 56.316406 83.421875 56.792969 83.371094 C 57.046875 83.339844 57.25 83.238281 57.25 83.152344 C 57.25 83.070312 56.417969 83.003906 55.386719 83.003906 C 54.25 83.003906 53.523438 83.070312 53.523438 83.171875 Z M 55.859375 83.625 C 55.894531 83.757812 55.757812 83.839844 55.488281 83.839844 C 55.199219 83.839844 55.046875 83.757812 55.046875 83.574219 C 55.046875 83.253906 55.742188 83.304688 55.859375 83.625 Z M 55.859375 83.625 "/>
<path style=" stroke:none;fill-rule:nonzero;fill:rgb(0%,0%,0%);fill-opacity:1;" d="M 21.171875 83.339844 C 21.171875 83.421875 21.527344 83.507812 21.953125 83.507812 C 22.578125 83.507812 22.746094 83.574219 22.816406 83.839844 C 22.867188 84.027344 23 84.175781 23.121094 84.175781 C 23.238281 84.175781 23.375 84.027344 23.425781 83.839844 C 23.492188 83.574219 23.660156 83.507812 24.203125 83.507812 C 24.59375 83.507812 24.898438 83.421875 24.898438 83.339844 C 24.898438 83.238281 24.171875 83.171875 23.035156 83.171875 C 21.902344 83.171875 21.171875 83.238281 21.171875 83.339844 Z M 21.171875 83.339844 "/>
<path style=" stroke:none;fill-rule:nonzero;fill:rgb(0%,0%,0%);fill-opacity:1;" d="M 70.800781 83.421875 C 70.800781 83.625 71.121094 83.671875 72.664062 83.671875 C 74.203125 83.671875 74.527344 83.625 74.527344 83.421875 C 74.527344 83.222656 74.203125 83.171875 72.664062 83.171875 C 71.121094 83.171875 70.800781 83.222656 70.800781 83.421875 Z M 70.800781 83.421875 "/>
<path style=" stroke:none;fill-rule:nonzero;fill:rgb(0%,0%,0%);fill-opacity:1;" d="M 39.804688 83.757812 C 39.804688 84.125 39.734375 84.175781 39.125 84.175781 C 38.636719 84.175781 38.449219 84.242188 38.449219 84.429688 C 38.449219 84.644531 38.71875 84.679688 40.261719 84.644531 C 41.515625 84.613281 42.089844 84.527344 42.140625 84.378906 C 42.191406 84.226562 41.921875 84.175781 41.175781 84.175781 C 40.191406 84.175781 40.140625 84.160156 40.140625 83.757812 C 40.140625 83.523438 40.074219 83.339844 39.972656 83.339844 C 39.886719 83.339844 39.804688 83.523438 39.804688 83.757812 Z M 39.804688 83.757812 "/>
<path style=" stroke:none;fill-rule:nonzero;fill:rgb(0%,0%,0%);fill-opacity:1;" d="M 44.75 83.773438 C 44.292969 84.09375 44.257812 84.78125 44.699219 85.015625 C 45.578125 85.46875 46.917969 85.046875 46.917969 84.292969 C 46.917969 83.925781 46.257812 83.507812 45.648438 83.507812 C 45.359375 83.507812 44.953125 83.625 44.75 83.773438 Z M 46.324219 84.34375 C 46.324219 84.679688 45.816406 84.914062 45.34375 84.78125 C 44.78125 84.644531 44.75 84.210938 45.273438 84.027344 C 45.714844 83.859375 46.324219 84.042969 46.324219 84.34375 Z M 46.324219 84.34375 "/>
<path style=" stroke:none;fill-rule:nonzero;fill:rgb(0%,0%,0%);fill-opacity:1;" d="M 77.691406 83.839844 C 77.640625 84.007812 77.335938 84.292969 77.015625 84.445312 C 76.660156 84.613281 76.457031 84.8125 76.507812 84.949219 C 76.574219 85.132812 76.726562 85.097656 77.253906 84.832031 C 77.878906 84.527344 77.945312 84.527344 78.4375 84.765625 C 78.726562 84.914062 79.082031 85 79.234375 84.929688 C 79.453125 84.847656 79.386719 84.746094 78.894531 84.496094 C 78.558594 84.328125 78.234375 84.027344 78.167969 83.839844 C 78.03125 83.421875 77.8125 83.40625 77.691406 83.839844 Z M 77.691406 83.839844 "/>
<path style=" stroke:none;fill-rule:nonzero;fill:rgb(0%,0%,0%);fill-opacity:1;" d="M 27.101562 84.429688 L 27.101562 85.015625 L 28.371094 85.015625 C 29.910156 85.015625 30.082031 84.714844 28.589844 84.644531 C 27.625 84.597656 27.523438 84.5625 27.472656 84.210938 C 27.386719 83.625 27.101562 83.773438 27.101562 84.429688 Z M 27.101562 84.429688 "/>
<path style=" stroke:none;fill-rule:nonzero;fill:rgb(0%,0%,0%);fill-opacity:1;" d="M 58.773438 84.09375 C 58.773438 84.359375 59.773438 84.445312 60.789062 84.242188 C 61.738281 84.058594 61.347656 83.839844 60.042969 83.839844 C 59.027344 83.839844 58.773438 83.890625 58.773438 84.09375 Z M 58.773438 84.09375 "/>
<path style=" stroke:none;fill-rule:nonzero;fill:rgb(0%,0%,0%);fill-opacity:1;" d="M 71.308594 84.429688 L 71.308594 85.015625 L 72.664062 85.015625 C 73.457031 85.015625 74.019531 84.949219 74.019531 84.847656 C 74.019531 84.746094 73.542969 84.679688 72.917969 84.679688 C 71.847656 84.679688 71.816406 84.664062 71.816406 84.261719 C 71.816406 83.992188 71.714844 83.839844 71.5625 83.839844 C 71.390625 83.839844 71.308594 84.027344 71.308594 84.429688 Z M 71.308594 84.429688 "/>
<path style=" stroke:none;fill-rule:nonzero;fill:rgb(0%,0%,0%);fill-opacity:1;" d="M 21.679688 84.511719 L 21.679688 85.015625 L 23.035156 85.015625 C 23.832031 85.015625 24.390625 84.949219 24.390625 84.847656 C 24.390625 84.746094 23.914062 84.679688 23.289062 84.679688 C 22.308594 84.679688 22.1875 84.644531 22.1875 84.34375 C 22.1875 84.160156 22.070312 84.007812 21.933594 84.007812 C 21.765625 84.007812 21.679688 84.175781 21.679688 84.511719 Z M 21.679688 84.511719 "/>
<path style=" stroke:none;fill-rule:nonzero;fill:rgb(0%,0%,0%);fill-opacity:1;" d="M 81.300781 84.613281 C 81.300781 84.765625 81.386719 84.847656 81.503906 84.8125 C 81.808594 84.714844 81.859375 84.34375 81.570312 84.34375 C 81.417969 84.34375 81.300781 84.460938 81.300781 84.613281 Z M 81.300781 84.613281 "/>
</g>
</svg>
