<?xml version="1.0" standalone="no"?>
<!DOCTYPE svg PUBLIC "-//W3C//DTD SVG 20010904//EN"
 "http://www.w3.org/TR/2001/REC-SVG-20010904/DTD/svg10.dtd">
<svg version="1.0" xmlns="http://www.w3.org/2000/svg"
 width="421.000000pt" height="255.000000pt" viewBox="0 0 421.000000 255.000000"
 preserveAspectRatio="xMidYMid meet">

<g transform="translate(0.000000,255.000000) scale(0.100000,-0.100000)"
fill="#000000" stroke="none">
<path d="M3034 2461 c-104 -28 -184 -72 -260 -143 -78 -73 -137 -159 -160
-233 l-17 -53 -111 -32 c-131 -37 -186 -67 -226 -121 -83 -116 -79 -230 14
-371 l18 -28 -248 0 c-267 0 -280 -3 -317 -52 l-20 -27 56 -426 c31 -233 61
-434 67 -446 19 -35 71 -49 180 -49 73 0 100 -3 100 -12 0 -20 -20 -191 -25
-215 -5 -21 -10 -21 -166 -25 l-161 -3 -24 -28 c-19 -23 -24 -39 -24 -87 0
-33 5 -71 12 -85 l11 -25 1227 0 1227 0 11 25 c7 14 12 52 12 84 0 79 -23 108
-91 117 -27 4 -49 11 -49 16 0 5 12 110 26 231 30 255 28 338 -7 412 -32 68
-102 135 -171 165 -32 14 -58 29 -58 33 0 4 71 115 157 245 172 260 198 316
190 401 -13 129 -90 213 -231 256 -45 13 -114 34 -153 45 -40 12 -73 26 -73
31 0 25 -69 146 -115 202 -143 173 -392 255 -601 198z m308 -509 c21 -9 76
-50 123 -90 l86 -74 -35 -38 c-43 -48 -70 -132 -60 -187 8 -45 36 -104 58
-122 22 -18 20 -35 -8 -79 -76 -119 -235 -196 -365 -177 -94 13 -87 5 -101
122 -11 92 -16 109 -40 136 -27 30 -33 32 -112 36 -47 2 -86 8 -90 15 -4 6 -8
73 -8 149 l0 138 53 75 c76 108 92 114 297 114 135 0 172 -4 202 -18z m685
-75 c76 -40 118 -148 91 -229 -12 -35 -234 -384 -268 -421 -4 -5 -53 22 -108
60 l-99 68 62 7 c72 7 108 23 152 70 90 93 85 251 -9 334 -20 18 -41 33 -46
35 -6 2 -13 38 -17 80 l-7 77 108 -32 c60 -18 123 -40 141 -49z m-1455 -24
c-3 -68 -8 -93 -22 -108 -57 -64 -71 -160 -35 -247 6 -16 0 -18 -59 -18 l-66
0 -50 75 c-78 121 -77 208 3 289 36 35 57 46 132 68 50 15 92 27 95 27 3 1 4
-38 2 -86z m426 -871 c30 -222 52 -405 50 -407 -6 -6 -519 -7 -525 -2 -2 3 8
114 24 248 15 134 24 252 20 262 -6 15 -25 17 -191 17 -102 0 -187 -4 -190 -9
-3 -5 -17 -105 -31 -222 -14 -118 -27 -233 -30 -256 l-6 -43 -109 0 -109 0 -6
33 c-3 17 -25 190 -50 382 -25 193 -48 362 -51 378 l-6 27 579 -2 578 -3 53
-403z m297 92 c-22 -35 -74 -64 -112 -64 -62 0 -113 33 -113 74 0 22 2 22 83
18 45 -2 98 0 117 5 41 11 48 2 25 -33z m-649 -656 l-11 -63 -73 -3 -73 -3 6
53 c10 81 6 78 88 78 l74 0 -11 -62z m1482 -315 l-3 -38 -1165 0 -1165 0 -3
38 -3 37 1171 0 1171 0 -3 -37z"/>
<path d="M2891 1817 c-47 -17 -77 -58 -62 -86 14 -25 53 -28 71 -6 7 8 25 15
40 15 15 0 33 -7 40 -15 29 -34 77 -5 66 40 -11 44 -96 73 -155 52z"/>
<path d="M3287 1815 c-49 -17 -67 -33 -67 -59 0 -42 45 -62 70 -31 7 8 25 15
40 15 15 0 33 -7 40 -15 19 -23 59 -19 69 8 23 60 -70 111 -152 82z"/>
<path d="M2901 1667 c-22 -57 21 -116 60 -81 21 19 26 73 7 92 -20 20 -58 14
-67 -11z"/>
<path d="M3302 1678 c-6 -6 -12 -29 -12 -50 0 -45 27 -66 61 -48 17 9 20 19
17 58 -3 42 -6 47 -28 50 -14 2 -31 -3 -38 -10z"/>
<path d="M3030 1549 c-28 -51 63 -103 140 -80 47 14 79 54 63 80 -12 20 -51
27 -66 12 -14 -14 -64 -14 -72 -1 -11 18 -54 11 -65 -11z"/>
<path d="M220 2380 c0 -5 -18 -10 -40 -10 -36 0 -40 -2 -40 -25 0 -22 4 -25
36 -25 46 0 35 -18 -17 -26 -29 -5 -39 -11 -35 -21 4 -8 6 -17 6 -19 0 -10 48
-2 80 14 33 16 37 16 70 0 43 -22 76 -23 84 -2 9 23 8 24 -14 24 -10 0 -32 6
-47 13 l-27 12 39 5 c32 4 40 9 40 25 0 16 -8 21 -42 23 -24 2 -43 7 -43 13 0
5 -11 9 -25 9 -14 0 -25 -4 -25 -10z"/>
<path d="M460 2375 c0 -9 -9 -15 -25 -15 -18 0 -25 -5 -25 -20 0 -15 7 -20 25
-20 36 0 32 -33 -7 -63 -27 -22 -30 -28 -19 -41 18 -21 23 -20 56 10 l27 25
22 -20 c27 -25 52 -27 60 -5 8 22 8 24 -7 24 -19 0 -47 33 -47 53 0 11 8 17
25 17 18 0 25 5 25 20 0 16 -7 20 -30 20 -20 0 -30 5 -30 15 0 9 -9 15 -25 15
-16 0 -25 -6 -25 -15z"/>
<path d="M600 2350 c0 -33 -3 -40 -20 -40 -13 0 -20 -7 -20 -20 0 -13 7 -20
20 -20 17 0 20 -7 20 -50 0 -47 2 -50 25 -50 l25 0 0 110 0 110 -25 0 c-22 0
-25 -4 -25 -40z"/>
<path d="M890 2240 l0 -150 25 0 25 0 0 150 0 150 -25 0 -25 0 0 -150z"/>
<path d="M760 2330 c0 -51 -22 -105 -49 -122 -24 -15 -27 -31 -7 -47 16 -13
61 18 71 49 5 17 10 15 40 -18 32 -35 35 -36 52 -19 17 17 16 18 -10 43 -34
32 -47 63 -47 115 0 35 -3 39 -25 39 -23 0 -25 -4 -25 -40z"/>
<path d="M110 2220 c0 -18 7 -20 54 -20 49 0 55 -2 58 -22 2 -15 11 -24 26
-26 18 -3 22 1 22 22 0 25 3 26 55 26 48 0 55 2 55 20 0 19 -7 20 -135 20
-128 0 -135 -1 -135 -20z"/>
<path d="M457 2193 c-4 -3 -7 -26 -7 -50 l0 -43 105 0 c98 0 105 1 105 20 0
18 -7 20 -80 20 l-80 0 0 30 c0 22 -5 30 -18 30 -10 0 -22 -3 -25 -7z"/>
<path d="M140 2145 l0 -45 105 0 c98 0 105 1 105 20 0 18 -7 20 -80 20 -79 0
-80 0 -80 25 0 20 -5 25 -25 25 -23 0 -25 -4 -25 -45z"/>
<path d="M246 2021 c-3 -5 0 -14 8 -20 10 -8 16 -8 25 2 6 8 8 17 4 20 -9 10
-31 9 -37 -2z"/>
<path d="M737 2023 c-4 -3 -7 -15 -7 -25 0 -10 -4 -18 -10 -18 -5 0 -10 -7
-10 -15 0 -8 5 -15 10 -15 6 0 10 -20 10 -45 0 -33 4 -45 15 -45 11 0 15 12
15 44 0 30 5 46 15 50 8 3 15 10 15 16 0 5 -7 10 -15 10 -8 0 -15 5 -15 10 0
6 7 10 15 10 8 0 15 7 15 15 0 15 -40 21 -53 8z"/>
<path d="M990 1945 c0 -67 3 -85 14 -85 10 0 16 14 18 43 2 29 8 42 18 42 10
0 16 -13 18 -42 2 -30 8 -43 18 -43 12 0 14 12 12 58 l-3 57 -32 0 c-29 0 -33
3 -33 27 0 18 -5 28 -15 28 -12 0 -15 -16 -15 -85z"/>
<path d="M1510 1945 c0 -78 2 -85 20 -85 17 0 20 7 20 45 0 33 4 45 15 45 11
0 15 -12 15 -45 0 -38 3 -45 20 -45 17 0 20 7 20 41 0 53 -15 79 -45 79 -20 0
-25 5 -25 25 0 18 -5 25 -20 25 -18 0 -20 -7 -20 -85z"/>
<path d="M132 1997 c-29 -30 -29 -86 -2 -115 22 -23 64 -29 90 -12 20 13 4 25
-33 25 -29 0 -32 3 -35 33 -4 41 14 65 43 58 27 -7 38 3 24 21 -18 21 -63 16
-87 -10z"/>
<path d="M581 1994 c-23 -30 -27 -64 -10 -97 16 -29 28 -37 62 -37 40 0 67 32
67 80 0 75 -76 109 -119 54z m74 -54 c0 -39 -3 -45 -22 -48 -17 -3 -24 3 -29
22 -10 43 3 78 29 74 19 -3 22 -9 22 -48z"/>
<path d="M872 1997 c-29 -30 -30 -89 -2 -117 21 -21 65 -26 89 -11 22 14 3 31
-29 24 -25 -4 -31 -2 -38 18 -15 40 0 74 34 75 45 2 47 3 34 19 -19 22 -63 18
-88 -8z"/>
<path d="M1395 1995 c-60 -60 1 -159 79 -129 9 3 16 13 16 21 0 11 -7 13 -26
9 -33 -9 -54 9 -54 44 0 33 22 54 49 45 23 -7 39 14 20 26 -25 16 -59 9 -84
-16z"/>
<path d="M313 1991 c-13 -20 -6 -98 10 -118 14 -18 57 -16 57 2 0 8 -7 15 -15
15 -23 0 -20 56 4 63 15 4 23 -4 35 -37 20 -52 20 -65 1 -72 -18 -7 -20 -34
-2 -34 29 1 47 27 77 116 18 53 18 54 0 54 -12 0 -21 -10 -25 -30 -4 -16 -10
-30 -15 -30 -5 0 -11 14 -15 30 -6 26 -11 30 -41 30 -24 0 -34 5 -34 15 0 21
-23 19 -37 -4z"/>
<path d="M250 1920 c0 -47 3 -60 15 -60 12 0 15 13 15 60 0 47 -3 60 -15 60
-12 0 -15 -13 -15 -60z"/>
<path d="M1116 1928 c3 -28 7 -55 10 -60 3 -4 25 -7 49 -6 l45 1 0 58 c0 52
-2 59 -20 59 -13 0 -19 -7 -18 -22 2 -50 -3 -68 -17 -68 -11 0 -15 12 -15 45
0 38 -3 45 -19 45 -18 0 -19 -5 -15 -52z"/>
<path d="M1250 1919 c0 -45 3 -59 14 -59 10 0 16 14 18 43 2 29 8 42 18 42 10
0 16 -13 18 -42 2 -30 8 -43 18 -43 12 0 14 12 12 58 l-3 57 -47 2 -48 2 0
-60z"/>
<path d="M1646 1958 c-20 -28 -20 -48 0 -76 12 -18 24 -22 50 -20 41 4 50 22
14 26 -42 6 -47 22 -7 22 32 0 37 3 37 23 0 13 -5 28 -12 35 -20 20 -65 14
-82 -10z m57 -15 c-7 -2 -19 -2 -25 0 -7 3 -2 5 12 5 14 0 19 -2 13 -5z"/>
<path d="M1766 1958 c-9 -12 -16 -29 -16 -38 0 -9 7 -26 16 -38 23 -33 73 -27
94 11 13 24 13 30 0 55 -21 37 -71 43 -94 10z m62 -35 c-2 -17 -9 -28 -18 -28
-9 0 -16 11 -18 28 -3 22 1 27 18 27 17 0 21 -5 18 -27z"/>
<path d="M1888 1963 c-2 -9 -1 -36 1 -60 4 -58 29 -59 33 0 2 29 8 42 18 42
10 0 16 -13 18 -42 2 -30 8 -43 18 -43 12 0 14 12 12 58 l-3 57 -47 2 c-36 1
-48 -2 -50 -14z"/>
<path d="M685 1671 c-156 -41 -261 -100 -367 -208 -81 -81 -110 -123 -153
-217 -49 -107 -68 -195 -68 -316 0 -121 19 -209 68 -316 42 -93 72 -135 148
-213 238 -242 579 -301 882 -152 342 169 506 575 378 936 -90 250 -302 435
-562 491 -91 19 -240 17 -326 -5z m390 -35 c119 -39 218 -98 300 -180 411
-411 220 -1102 -345 -1245 -212 -53 -438 -6 -621 130 -205 152 -321 422 -289
674 41 319 268 569 584 641 96 22 272 13 371 -20z"/>
<path d="M770 1580 l0 -60 41 0 c32 0 42 -4 46 -20 11 -41 22 -18 26 53 l3 72
2 -73 c1 -54 5 -73 15 -69 8 2 12 27 12 78 0 73 0 74 -27 77 -26 3 -27 1 -30
-50 -3 -52 -4 -53 -33 -53 -28 0 -30 3 -33 43 -3 39 -1 42 22 42 14 0 26 5 26
10 0 6 -16 10 -35 10 l-35 0 0 -60z"/>
<path d="M645 1572 c6 -38 6 -39 -34 -52 -23 -7 -44 -10 -48 -7 -3 4 8 12 26
18 26 9 30 15 25 33 -4 11 -7 22 -8 23 -2 2 -21 -5 -44 -14 -43 -17 -60 -40
-19 -27 52 16 53 16 35 2 -9 -7 -24 -17 -33 -23 -14 -8 -14 -13 -3 -28 13 -17
16 -17 68 4 73 29 74 31 60 73 -16 48 -34 47 -25 -2z"/>
<path d="M1023 1578 c-1 -17 3 -38 10 -47 10 -12 9 -14 -5 -8 -10 3 -19 3 -22
-1 -3 -5 18 -17 45 -28 47 -17 50 -21 45 -46 -9 -46 14 -32 36 22 11 28 26 50
33 50 8 0 10 9 7 25 -7 37 -25 30 -44 -15 -16 -39 -17 -39 -50 -27 -30 10 -31
12 -10 15 13 2 26 11 29 20 4 9 11 20 16 23 16 11 -31 49 -60 49 -24 0 -28 -4
-30 -32z m57 -18 c0 -13 -7 -20 -20 -20 -13 0 -20 7 -20 20 0 13 7 20 20 20
13 0 20 -7 20 -20z"/>
<path d="M630 1496 c-55 -22 -68 -39 -51 -65 8 -12 19 -11 70 10 63 24 70 34
49 61 -12 15 -18 15 -68 -6z m50 -16 c0 -5 -2 -10 -4 -10 -2 0 -20 -7 -40 -15
-31 -13 -36 -13 -36 -1 0 8 12 19 28 24 36 14 52 14 52 2z"/>
<path d="M407 1483 c-3 -4 15 -30 39 -56 24 -27 44 -50 44 -53 0 -3 -12 -16
-27 -29 -20 -17 -35 -22 -52 -18 -27 7 -26 -14 2 -31 14 -9 26 -2 64 36 l47
48 -33 34 c-18 19 -30 39 -27 45 4 6 -1 11 -11 11 -11 0 -24 5 -30 11 -6 6
-13 7 -16 2z"/>
<path d="M1303 1452 c20 -21 37 -42 37 -47 0 -15 -56 -75 -69 -75 -16 0 -14
15 4 30 8 7 15 16 15 21 0 14 -22 10 -42 -8 -15 -13 -18 -14 -18 -2 0 8 5 20
12 27 18 18 0 27 -19 10 -10 -9 -24 -13 -30 -11 -7 3 -13 0 -13 -5 0 -10 88
-92 99 -92 4 0 28 22 54 48 l48 49 -48 46 c-57 56 -83 64 -30 9z"/>
<path d="M365 1439 c-11 -5 -25 -21 -31 -34 -10 -20 -9 -27 5 -40 50 -44 107
14 67 68 -15 19 -14 19 -41 6z m35 -49 c0 -11 -6 -20 -14 -20 -18 0 -29 16
-21 30 11 18 35 11 35 -10z"/>
<path d="M489 1283 c-13 -16 -12 -17 4 -4 9 7 17 15 17 17 0 8 -8 3 -21 -13z"/>
<path d="M915 1271 c-85 -21 -143 -79 -236 -235 -77 -130 -123 -176 -177 -176
-35 -1 -36 -1 -17 -16 14 -11 35 -14 71 -12 64 5 125 46 183 122 28 38 49 56
64 56 12 0 33 3 46 7 24 6 24 5 -10 -42 -52 -75 -159 -180 -208 -204 -23 -12
-71 -26 -105 -30 l-61 -7 50 -11 c116 -26 200 15 375 182 69 66 148 135 177
153 66 42 151 72 233 81 l65 8 -48 22 c-132 62 -250 45 -383 -55 -33 -26 -104
-58 -104 -48 0 17 99 120 151 156 32 23 58 43 56 44 -9 7 -98 11 -122 5z"/>
<path d="M1227 1079 c-89 -21 -172 -77 -297 -201 -109 -108 -174 -156 -244
-179 l-50 -17 57 -7 c105 -13 240 9 342 55 85 39 117 66 47 39 -62 -23 -196
-37 -205 -21 -8 12 208 177 295 225 72 40 175 74 263 85 l60 8 -53 12 c-60 14
-159 14 -215 1z"/>
<path d="M410 940 c44 -44 55 -50 92 -50 23 0 39 2 37 4 -2 2 -28 24 -57 50
-41 36 -60 46 -87 46 l-35 0 50 -50z"/>
<path d="M285 899 c11 -6 43 -33 70 -59 52 -49 96 -70 149 -70 l31 0 -30 16
c-16 8 -42 26 -56 40 -14 13 -29 21 -33 17 -4 -5 -6 -2 -4 5 5 23 -47 54 -98
59 -41 3 -46 2 -29 -8z"/>
<path d="M1420 735 c0 -8 5 -15 10 -15 19 0 10 -18 -12 -24 -23 -5 -74 -84
-63 -95 4 -3 10 1 15 8 6 11 15 10 45 -9 20 -12 39 -19 43 -15 7 6 -6 18 -53
49 -17 12 -18 15 -5 31 11 13 24 16 57 12 43 -5 59 7 25 17 -11 4 -25 18 -32
31 -15 28 -30 33 -30 10z"/>
<path d="M238 723 c-42 -17 -52 -39 -13 -29 18 5 27 1 36 -15 11 -21 6 -31
-26 -42 -5 -3 -7 -8 -3 -12 10 -10 98 23 98 37 0 6 -10 8 -24 4 -19 -5 -26 -1
-32 16 -4 14 -1 25 10 33 37 28 12 32 -46 8z"/>
<path d="M278 603 c-16 -2 -28 -9 -28 -15 0 -7 16 -8 45 -4 25 4 45 4 45 0 0
-4 -9 -21 -20 -40 -12 -18 -17 -35 -12 -37 11 -8 65 80 57 93 -6 10 -34 11
-87 3z"/>
<path d="M480 586 c0 -2 8 -10 18 -17 15 -13 16 -12 3 4 -13 16 -21 21 -21 13z"/>
<path d="M1330 581 c0 -9 71 -61 83 -61 18 0 3 22 -30 45 -40 26 -53 31 -53
16z"/>
<path d="M360 515 c-33 -34 -33 -35 -15 -55 24 -26 39 -26 23 1 -11 18 -10 23
15 44 26 23 36 45 19 45 -4 0 -23 -16 -42 -35z"/>
<path d="M1291 532 c-15 -28 2 -46 38 -39 33 7 42 -8 19 -31 -7 -7 -8 -12 -2
-12 16 0 34 22 34 42 0 14 -8 18 -36 18 -31 0 -36 3 -31 20 6 25 -9 26 -22 2z"/>
<path d="M426 457 c-32 -41 -32 -47 -1 -70 27 -19 35 -8 10 13 -13 11 -12 17
10 46 27 35 30 44 16 44 -6 0 -21 -15 -35 -33z"/>
<path d="M1226 471 c-17 -19 -17 -21 9 -55 25 -33 45 -46 45 -29 0 3 -11 21
-25 38 -24 32 -24 45 2 45 7 0 13 -9 13 -20 0 -12 9 -24 23 -29 29 -11 47 0
19 12 -11 5 -22 19 -24 31 -4 28 -39 32 -62 7z"/>
<path d="M497 418 c-3 -18 -8 -44 -12 -58 l-8 -25 24 21 c28 25 69 47 75 41 2
-2 -3 -20 -11 -40 -17 -42 -18 -47 -7 -47 5 0 13 12 19 28 11 27 11 27 12 -10
1 -43 23 -52 41 -18 6 11 15 20 21 20 6 0 6 -7 -1 -19 -12 -23 -13 -41 -2 -41
4 0 15 20 25 45 15 41 15 46 1 52 -10 4 -25 -5 -40 -23 l-23 -29 -1 40 c0 33
-5 42 -26 52 -19 9 -32 9 -45 2 -16 -8 -19 -6 -19 16 0 36 -17 31 -23 -7z"/>
<path d="M1158 424 c-16 -8 -28 -17 -28 -21 0 -4 34 -65 46 -81 1 -2 17 4 36
14 19 10 27 19 20 22 -7 2 -19 -1 -26 -8 -11 -8 -16 -8 -22 1 -4 7 0 17 9 24
23 17 21 28 -2 15 -26 -13 -31 -13 -31 5 0 7 8 18 17 24 29 16 10 20 -19 5z"/>
<path d="M1108 394 c-5 -4 -8 -25 -8 -48 l0 -40 -29 28 c-16 16 -34 27 -41 24
-6 -2 7 -21 30 -43 49 -48 62 -40 58 34 -2 29 -6 49 -10 45z"/>
<path d="M990 348 c0 -27 21 -88 30 -88 12 0 12 2 -1 56 -10 40 -29 61 -29 32z"/>
<path d="M757 343 c-12 -11 -8 -78 5 -91 7 -7 24 -12 40 -12 32 0 48 24 48 70
0 45 -24 33 -28 -14 -3 -32 -6 -37 -25 -34 -18 2 -22 10 -23 40 0 39 -6 53
-17 41z"/>
<path d="M950 313 l0 -38 -26 33 c-34 43 -54 42 -54 -2 0 -40 8 -66 21 -66 5
0 6 14 3 30 -8 39 4 38 38 -2 33 -41 46 -30 40 35 -5 56 -22 63 -22 10z"/>
</g>
</svg>
